Coordinates
version=1
nRows=7
nColumns=32
inDegrees=yes

Units are S.I. units (second, meters, Newtons, ...)
If the header above contains a line with 'inDegrees', this indicates whether rotational values are in degrees (yes) or radians (no).

endheader
time	pelvis_tilt	pelvis_list	pelvis_rotation	pelvis_tx	pelvis_ty	pelvis_tz	hip_flexion_r	hip_adduction_r	hip_rotation_r	knee_angle_r	knee_adduction_r	med_cond_adduction_r	lat_cond_adduction_r	patella_r_constrained_knee_angle	ankle_angle_r	subtalar_angle_r	mtp_angle_r	hip_flexion_l	hip_adduction_l	hip_rotation_l	knee_angle_l	knee_adduction_l	med_cond_adduction_l	lat_cond_adduction_l	patella_l_constrained_knee_angle	ankle_angle_l	subtalar_angle_l	mtp_angle_l	lumbar_extension	lumbar_bending	lumbar_rotation
      0.07000000	     -0.23246408	      8.78462096	      6.58493615	     -0.50899530	      0.90244843	      0.18460272	     28.38887281	    -17.70994159	    -14.33129870	    -11.95884208	      4.68131015	     -0.00000000	     -0.00000000	     -0.20872117	     -0.87997298	      4.24302055	      0.00000000	    -21.28166988	      6.43219423	     -9.55482617	     -9.67866354	     -1.86497373	      0.00000000	      0.00000000	     -0.16892455	      0.90008566	     13.09464451	      0.00000000	     -2.32858741	     -4.69472139	     -0.15259135
      0.07500000	      0.02740755	      8.48230887	      6.72738534	     -0.50097911	      0.90249076	      0.18480857	     27.97496066	    -17.41256741	    -14.24905904	    -12.51260943	      4.66714123	     -0.00000000	     -0.00000000	     -0.21838623	     -1.46198262	      3.82356211	     -0.00000000	    -21.54933683	      5.97721463	     -9.49678302	    -10.45794875	     -2.13123341	     -0.00000000	     -0.00000000	     -0.18252564	      0.23248488	     13.03824131	     -0.00000000	     -2.54863179	     -4.16293996	     -0.47858156
      0.08000000	      0.30793866	      8.17186023	      6.91567206	     -0.49300254	      0.90271400	      0.18480107	     27.48279574	    -17.15699473	    -14.20337674	    -13.01392500	      4.71224432	     -0.00000000	     -0.00000000	     -0.22713584	     -2.17400761	      3.30444172	      0.00000000	    -21.76549513	      5.53546910	     -9.43250097	    -11.33601097	     -2.46922878	      0.00000000	      0.00000000	     -0.19785072	     -0.50992033	     12.96023524	     -0.00000000	     -2.78048332	     -3.74536417	     -1.13888133
      0.08500000	      0.67599237	      7.69041679	      7.16389360	     -0.48495275	      0.90319370	      0.18464511	     26.80746048	    -16.75567978	    -14.42989680	    -13.43990108	      4.73741124	     -0.00000000	     -0.00000000	     -0.23457053	     -2.95606430	      2.89836041	     -0.00000000	    -21.99810852	      4.85726104	     -9.43148079	    -12.31934521	     -2.76409073	      0.00000000	      0.00000000	     -0.21501314	     -1.26076951	     12.92565397	      0.00000000	     -3.08822767	     -3.10893001	     -1.86779670
      0.09000000	      0.89808763	      7.44889034	      7.29864488	     -0.47698504	      0.90346255	      0.18472197	     26.47777605	    -16.60523283	    -14.40403471	    -14.15813661	      4.80867265	     -0.00000000	     -0.00000000	     -0.24710610	     -3.55821327	      2.65749347	     -0.00000000	    -22.04731876	      4.55220492	     -9.39388150	    -13.34104656	     -3.17268912	      0.00000000	      0.00000000	     -0.23284519	     -2.19780170	     12.70603587	      0.00000000	     -3.25338115	     -2.74988456	     -2.46136700
      0.09500000	      1.17269753	      7.09899087	      7.40581737	     -0.46901354	      0.90390543	      0.18486146	     26.04767961	    -16.31945859	    -14.44746837	    -14.78846322	      4.87032907	     -0.00000000	     -0.00000000	     -0.25810737	     -4.23898405	      2.36600388	      0.00000000	    -22.06086048	      4.10562916	     -9.52059550	    -14.48637163	     -3.55789401	      0.00000000	      0.00000000	     -0.25283488	     -3.18251604	     12.56175625	     -0.00000000	     -3.44771429	     -2.27499901	     -3.03522236
      0.10000000	      1.40060478	      6.79259305	      7.44154348	     -0.46105447	      0.90430876	      0.18513650	     25.74241132	    -16.07510862	    -14.42133598	    -15.53343769	      4.94525608	     -0.00000000	     -0.00000000	     -0.27110963	     -4.83383429	      2.15562902	      0.00000000	    -21.95587448	      3.73099064	     -9.74404778	    -15.74085363	     -3.94841946	     -0.00000000	     -0.00000000	     -0.27472972	     -4.24107899	     12.37832512	      0.00000000	     -3.58377690	     -1.86441683	     -3.52342919
